<svg width="1200" height="500" xmlns="http://www.w3.org/2000/svg"><g fill="none" fill-rule="evenodd"><path d="M442.565 260.702v42.97h-13.517v-107.13h34.487c4.774.098 9.292.858 13.554 2.28 4.262 1.423 8 3.483 11.216 6.181 3.215 2.698 5.76 6.034 7.635 10.007 1.876 3.973 2.813 8.535 2.813 13.686 0 5.15-.937 9.7-2.813 13.648-1.875 3.95-4.42 7.272-7.635 9.97-3.215 2.698-6.954 4.758-11.216 6.181-4.262 1.422-8.78 2.158-13.554 2.207h-20.97zm0-11.184h20.97c3.118-.049 5.992-.551 8.622-1.508s4.92-2.318 6.868-4.084c1.949-1.766 3.471-3.912 4.567-6.438s1.644-5.408 1.644-8.645c0-3.238-.548-6.156-1.644-8.756-1.096-2.6-2.606-4.807-4.53-6.622-1.924-1.815-4.214-3.213-6.868-4.194-2.655-.981-5.541-1.496-8.659-1.545h-20.97v41.792zm117.224-26.93c1.267 0 2.582.037 3.946.111 1.364.074 2.667.196 3.909.368s2.387.38 3.434.625c1.047.246 1.912.515 2.594.81l-1.827 13.317a71.583 71.583 0 00-7.49-1.287 65.387 65.387 0 00-7.415-.405c-6.333 0-11.46 1.447-15.381 4.341-3.921 2.894-6.807 6.941-8.658 12.14v51.064h-13.59V224.06h12.859l.658 12.656c3.214-4.366 7.075-7.812 11.58-10.338 4.506-2.526 9.633-3.79 15.381-3.79zm63.301 82.556c-5.553 0-10.655-.957-15.307-2.87-4.652-1.913-8.634-4.586-11.947-8.02-3.312-3.434-5.894-7.505-7.745-12.214-1.85-4.709-2.776-9.835-2.776-15.378v-3.09c0-6.426 1.022-12.177 3.068-17.254 2.046-5.077 4.762-9.37 8.147-12.877 3.386-3.507 7.234-6.192 11.545-8.056 4.31-1.864 8.731-2.796 13.262-2.796 5.699 0 10.68.993 14.942 2.98 4.262 1.986 7.806 4.733 10.63 8.24 2.826 3.508 4.933 7.64 6.321 12.398s2.083 9.909 2.083 15.452v6.107h-56.481c.146 3.63.84 7.039 2.082 10.227 1.242 3.189 2.947 5.972 5.115 8.351 2.168 2.38 4.762 4.256 7.782 5.63 3.02 1.373 6.356 2.06 10.01 2.06 4.822 0 9.109-.982 12.86-2.944 3.75-1.962 6.868-4.562 9.352-7.8l8.257 6.476c-1.316 2.011-2.96 3.936-4.932 5.776-1.973 1.84-4.25 3.47-6.832 4.893-2.582 1.422-5.504 2.563-8.768 3.421-3.264.859-6.82 1.288-10.668 1.288zm-1.753-71.371c-2.728 0-5.31.502-7.746 1.508-2.435 1.005-4.627 2.477-6.576 4.415-1.948 1.937-3.592 4.316-4.932 7.137-1.34 2.82-2.277 6.07-2.813 9.749h42.525v-1.03a30.582 30.582 0 00-1.498-7.873c-.852-2.6-2.106-4.93-3.763-6.99-1.656-2.06-3.738-3.728-6.247-5.003-2.508-1.276-5.492-1.913-8.95-1.913zm79.01-28.99v19.277h30.103v10.522h-30.103v43.264c0 3.09.39 5.641 1.169 7.652.78 2.011 1.85 3.618 3.215 4.82a11.766 11.766 0 004.713 2.538c1.778.49 3.665.736 5.662.736a41.39 41.39 0 004.53-.258 85.524 85.524 0 004.567-.625 99.324 99.324 0 004.165-.773c1.29-.27 2.35-.502 3.178-.699l1.9 9.64c-1.12.686-2.484 1.287-4.092 1.802a45.816 45.816 0 01-5.26 1.324c-1.9.368-3.91.65-6.029.846a68.515 68.515 0 01-6.32.295c-3.507 0-6.783-.503-9.827-1.509-3.045-1.005-5.687-2.6-7.928-4.782-2.24-2.183-4.007-5.004-5.297-8.462-1.291-3.458-1.937-7.64-1.937-12.545v-43.264h-20.75V224.06h20.75v-19.277h13.59zm80.18 0v19.277h30.103v10.522h-30.104v43.264c0 3.09.39 5.641 1.17 7.652.779 2.011 1.85 3.618 3.214 4.82a11.766 11.766 0 004.713 2.538c1.778.49 3.665.736 5.663.736a41.39 41.39 0 004.53-.258 85.524 85.524 0 004.566-.625c1.486-.245 2.874-.503 4.165-.773s2.35-.502 3.179-.699l1.9 9.64c-1.12.686-2.485 1.287-4.092 1.802a45.816 45.816 0 01-5.261 1.324c-1.9.368-3.91.65-6.028.846a68.515 68.515 0 01-6.32.295c-3.508 0-6.783-.503-9.828-1.509-3.044-1.005-5.687-2.6-7.928-4.782-2.24-2.183-4.006-5.004-5.297-8.462-1.29-3.458-1.936-7.64-1.936-12.545v-43.264h-20.751V224.06h20.75v-19.277h13.591zm50.294 19.277h40.406v67.84h25.793v11.772h-66.2V291.9h26.889v-55.994H830.82V224.06zm25.135-20.896c0-2.257.67-4.157 2.01-5.702 1.34-1.546 3.373-2.318 6.1-2.318 2.68 0 4.701.772 6.065 2.318 1.364 1.545 2.046 3.445 2.046 5.702 0 2.207-.682 4.047-2.046 5.518-1.364 1.472-3.385 2.208-6.064 2.208-2.728 0-4.762-.736-6.102-2.208-1.34-1.471-2.009-3.31-2.009-5.518zm87.852 101.98c-5.554 0-10.656-.957-15.308-2.87-4.652-1.913-8.634-4.586-11.946-8.02-3.313-3.434-5.894-7.505-7.745-12.214-1.852-4.709-2.777-9.835-2.777-15.378v-3.09c0-6.426 1.023-12.177 3.069-17.254 2.046-5.077 4.761-9.37 8.147-12.877 3.385-3.507 7.233-6.192 11.544-8.056 4.311-1.864 8.732-2.796 13.262-2.796 5.7 0 10.68.993 14.942 2.98 4.262 1.986 7.806 4.733 10.631 8.24 2.826 3.508 4.932 7.64 6.32 12.398 1.389 4.758 2.083 9.909 2.083 15.452v6.107h-56.48c.145 3.63.84 7.039 2.082 10.227 1.242 3.189 2.947 5.972 5.114 8.351 2.168 2.38 4.762 4.256 7.782 5.63 3.02 1.373 6.357 2.06 10.01 2.06 4.823 0 9.11-.982 12.86-2.944s6.868-4.562 9.353-7.8l8.256 6.476c-1.315 2.011-2.96 3.936-4.932 5.776-1.973 1.84-4.25 3.47-6.832 4.893-2.581 1.422-5.504 2.563-8.768 3.421-3.263.859-6.82 1.288-10.667 1.288zm-1.754-71.371c-2.728 0-5.31.502-7.745 1.508-2.436 1.005-4.628 2.477-6.576 4.415-1.949 1.937-3.593 4.316-4.932 7.137-1.34 2.82-2.277 6.07-2.813 9.749h42.525v-1.03a30.582 30.582 0 00-1.498-7.873c-.853-2.6-2.107-4.93-3.763-6.99-1.656-2.06-3.739-3.728-6.247-5.003-2.509-1.276-5.493-1.913-8.951-1.913zm98.811-11.184c1.267 0 2.582.036 3.946.11 1.364.074 2.667.196 3.909.368s2.387.38 3.434.625c1.047.246 1.912.515 2.594.81l-1.827 13.317a71.583 71.583 0 00-7.489-1.287 65.387 65.387 0 00-7.416-.405c-6.333 0-11.46 1.447-15.38 4.341-3.922 2.894-6.808 6.941-8.66 12.14v51.064h-13.59V224.06h12.86l.658 12.656c3.215-4.366 7.075-7.812 11.58-10.338 4.507-2.526 9.633-3.79 15.381-3.79z" fill="#FFF"/><g transform="translate(145 345)"><rect fill="#4D616E" opacity=".5" x="150" width="60" height="10" rx="5"/><rect fill="#4D616E" opacity=".5" x="70" width="70" height="10" rx="5"/><rect fill="#EA5E5E" width="60" height="10" rx="5"/></g><g transform="translate(145 325)"><rect fill="#4D616E" opacity=".5" x="160" width="50" height="10" rx="5"/><rect fill="#4D616E" opacity=".5" x="130" width="20" height="10" rx="5"/><rect fill="#4D616E" opacity=".5" x="70" width="50" height="10" rx="5"/><rect fill="#F7B93E" x="40" width="20" height="10" rx="5"/><rect fill="#56B3B4" width="30" height="10" rx="5"/></g><g transform="translate(145 305)"><rect fill="#4D616E" opacity=".5" x="110" width="100" height="10" rx="5"/><rect fill="#4D616E" opacity=".5" x="70" width="30" height="10" rx="5"/><rect fill="#BF85BF" width="60" height="10" rx="5"/></g><g transform="translate(145 285)"><rect fill="#4D616E" opacity=".5" x="180" width="30" height="10" rx="5"/><rect fill="#4D616E" opacity=".5" x="140" width="30" height="10" rx="5"/><rect fill="#F7B93E" x="30" width="100" height="10" rx="5"/><rect fill="#BF85BF" width="20" height="10" rx="5"/></g><g transform="translate(145 265)"><rect fill="#4D616E" opacity=".5" x="170" width="40" height="10" rx="5"/><rect fill="#BF85BF" x="120" width="40" height="10" rx="5"/><rect fill="#EA5E5E" x="60" width="50" height="10" rx="5"/><rect fill="#56B3B4" width="50" height="10" rx="5"/></g><g transform="translate(145 245)"><rect fill="#4D616E" opacity=".5" x="180" width="30" height="10" rx="5"/><rect fill="#56B3B4" x="80" width="90" height="10" rx="5"/><rect fill="#F7B93E" x="30" width="40" height="10" rx="5"/><rect fill="#EA5E5E" width="20" height="10" rx="5"/></g><g transform="translate(145 225)"><rect fill="#4D616E" opacity=".5" x="190" width="20" height="10" rx="5"/><rect fill="#F7B93E" x="120" width="60" height="10" rx="5"/><rect fill="#4D616E" opacity=".5" x="70" width="40" height="10" rx="5"/><rect fill="#BF85BF" width="60" height="10" rx="5"/></g><g transform="translate(145 205)"><rect fill="#4D616E" opacity=".5" x="190" width="20" height="10" rx="5"/><rect fill="#EA5E5E" x="120" width="60" height="10" rx="5"/><rect fill="#4D616E" opacity=".5" x="70" width="40" height="10" rx="5"/><rect fill="#56B3B4" x="40" width="20" height="10" rx="5"/><rect fill="#F7B93E" width="30" height="10" rx="5"/></g><g transform="translate(145 185)"><rect fill="#4D616E" opacity=".5" x="180" width="30" height="10" rx="5"/><rect fill="#56B3B4" x="150" width="20" height="10" rx="5"/><rect fill="#BF85BF" x="90" width="50" height="10" rx="5"/><rect fill="#56B3B4" width="80" height="10" rx="5"/></g><g transform="translate(145 165)"><rect fill="#4D616E" opacity=".5" x="170" width="40" height="10" rx="5"/><rect fill="#F7B93E" x="50" width="110" height="10" rx="5"/><rect fill="#EA5E5E" width="40" height="10" rx="5"/></g><g transform="translate(145 145)"><rect fill="#4D616E" opacity=".5" x="140" width="70" height="10" rx="5"/><rect fill="#56B3B4" width="130" height="10" rx="5"/></g></g></svg>